<?xml version="1.0" encoding="UTF-8" standalone="no"?>
<!-- Created with Inkscape (http://www.inkscape.org/) -->

<svg
   xmlns:dc="http://purl.org/dc/elements/1.1/"
   xmlns:cc="http://creativecommons.org/ns#"
   xmlns:rdf="http://www.w3.org/1999/02/22-rdf-syntax-ns#"
   xmlns:svg="http://www.w3.org/2000/svg"
   xmlns="http://www.w3.org/2000/svg"
   xmlns:sodipodi="http://sodipodi.sourceforge.net/DTD/sodipodi-0.dtd"
   xmlns:inkscape="http://www.inkscape.org/namespaces/inkscape"
   width="29.150146mm"
   height="29.149651mm"
   viewBox="0 0 29.150146 29.149651"
   version="1.1"
   id="svg4640"
   inkscape:version="0.92.1 r"
   sodipodi:docname="settings.svg">
  <defs
     id="defs4634" />
  <sodipodi:namedview
     id="base"
     pagecolor="#ffffff"
     bordercolor="#666666"
     borderopacity="1.0"
     inkscape:pageopacity="0.0"
     inkscape:pageshadow="2"
     inkscape:zoom="1.979899"
     inkscape:cx="57.451295"
     inkscape:cy="66.033376"
     inkscape:document-units="mm"
     inkscape:current-layer="layer1"
     showgrid="false"
     fit-margin-top="0"
     fit-margin-left="0"
     fit-margin-right="0"
     fit-margin-bottom="0"
     inkscape:window-width="832"
     inkscape:window-height="426"
     inkscape:window-x="61"
     inkscape:window-y="164"
     inkscape:window-maximized="1" />
  <metadata
     id="metadata4637">
    <rdf:RDF>
      <cc:Work
         rdf:about="">
        <dc:format>image/svg+xml</dc:format>
        <dc:type
           rdf:resource="http://purl.org/dc/dcmitype/StillImage" />
        <dc:title></dc:title>
      </cc:Work>
    </rdf:RDF>
  </metadata>
  <g
     inkscape:label="Ebene 1"
     inkscape:groupmode="layer"
     id="layer1"
     transform="translate(-89.873523,-133.43897)">
    <path
       style="opacity:1;fill:#828282;fill-opacity:1;stroke:none;stroke-width:0.5;stroke-linecap:round;stroke-linejoin:round;stroke-miterlimit:4;stroke-dasharray:2.00000002, 2.00000002;stroke-dashoffset:0;stroke-opacity:1;paint-order:normal"
       d="m 107.91946,133.43897 a 3.5000046,3.5000057 0 0 1 -3.47113,3.07475 3.5000046,3.5000057 0 0 1 -3.468,-3.0639 15.000003,15.000005 0 0 0 -4.473095,1.87121 3.5000046,3.5000057 0 0 1 0.440796,1.69291 3.5000046,3.5000057 0 0 1 -3.499538,3.50004 3.5000046,3.5000057 0 0 1 -1.699127,-0.44079 15.000003,15.000005 0 0 0 -1.875843,4.4695 3.5000046,3.5000057 0 0 1 3.074749,3.47109 3.5000046,3.5000057 0 0 1 -3.063372,3.46853 15.000003,15.000005 0 0 0 1.870683,4.4726 3.5000046,3.5000057 0 0 1 1.69291,-0.44133 3.5000046,3.5000057 0 0 1 3.499538,3.50007 3.5000046,3.5000057 0 0 1 -0.440796,1.6986 15.000003,15.000005 0 0 0 4.470005,1.87637 3.5000046,3.5000057 0 0 1 3.47109,-3.07475 3.5000046,3.5000057 0 0 1 3.46853,3.06803 15.000003,15.000005 0 0 0 4.47725,-1.86656 3.5000046,3.5000057 0 0 1 -0.44598,-1.70169 3.5000046,3.5000057 0 0 1 3.50007,-3.50007 3.5000046,3.5000057 0 0 1 1.71151,0.44961 15.000003,15.000005 0 0 0 1.86396,-4.47829 3.5000046,3.5000057 0 0 1 -3.07525,-3.47112 3.5000046,3.5000057 0 0 1 3.0639,-3.468 15.000003,15.000005 0 0 0 -1.87121,-4.4731 3.5000046,3.5000057 0 0 1 -1.69291,0.4413 3.5000046,3.5000057 0 0 1 -3.50007,-3.50004 3.5000046,3.5000057 0 0 1 0.44133,-1.6986 15.000003,15.000005 0 0 0 -4.47,-1.87637 z m -3.47113,7.57473 a 6.9999886,7.0000043 0 0 1 7.00011,7.00008 6.9999886,7.0000043 0 0 1 -7.00011,7.00011 6.9999886,7.0000043 0 0 1 -7.000078,-7.00011 6.9999886,7.0000043 0 0 1 7.000078,-7.00008 z"
       id="path4757"
       inkscape:connector-curvature="0" />
  </g>
</svg>
