<?xml version="1.0" standalone="no"?>
<!DOCTYPE svg PUBLIC "-//W3C//DTD SVG 20010904//EN"
 "http://www.w3.org/TR/2001/REC-SVG-20010904/DTD/svg10.dtd">
<svg version="1.0" xmlns="http://www.w3.org/2000/svg"
 width="700.000000pt" height="700.000000pt" viewBox="0 0 700.000000 700.000000"
 preserveAspectRatio="xMidYMid meet">
<metadata>
Created by potrace 1.11, written by Peter Selinger 2001-2013
</metadata>
<g transform="translate(0.000000,700.000000) scale(0.100000,-0.100000)"
fill="#000000" stroke="none">
<path d="M730 6270 c-20 -20 -20 -33 -20 -2325 l0 -2305 1202 2 1202 3 292
405 293 405 -950 3 -949 2 2 603 3 602 588 3 587 2 0 325 0 325 -590 0 -590 0
0 575 0 575 2245 0 2245 0 0 390 c0 377 -1 391 -20 410 -20 20 -33 20 -2770
20 -2737 0 -2750 0 -2770 -20z"/>
<path d="M3280 3995 l0 -325 821 0 c525 0 819 -3 817 -10 -1 -5 -479 -668
-1060 -1474 -582 -805 -1058 -1467 -1058 -1470 0 -3 774 -6 1720 -6 l1721 0
24 25 25 24 0 301 0 300 -1066 0 c-935 0 -1065 2 -1060 15 3 8 477 668 1054
1467 577 799 1052 1459 1056 1466 6 9 -296 12 -1493 12 l-1501 0 0 -325z"/>
<path d="M5002 2055 c-161 -222 -292 -407 -292 -410 0 -3 356 -5 790 -5 l790
0 0 410 0 410 -498 0 -498 0 -292 -405z"/>
<path d="M710 1060 l0 -301 25 -24 24 -25 839 0 840 0 228 317 c126 174 231
320 232 325 2 4 -489 8 -1092 8 l-1096 0 0 -300z"/>
</g>
</svg>
